<?xml version="1.0" standalone="no"?>
<!DOCTYPE svg PUBLIC "-//W3C//DTD SVG 20010904//EN"
 "http://www.w3.org/TR/2001/REC-SVG-20010904/DTD/svg10.dtd">
<svg version="1.0" xmlns="http://www.w3.org/2000/svg"
 width="1000.000000pt" height="1000.000000pt" viewBox="0 0 1000.000000 1000.000000"
 preserveAspectRatio="xMidYMid meet">
<metadata>
Created by potrace 1.14, written by Peter Selinger 2001-2017
</metadata>
<g transform="translate(0.000000,1000.000000) scale(0.100000,-0.100000)"
fill="#000000" stroke="none">
<path d="M0 5000 l0 -5000 5000 0 5000 0 0 5000 0 5000 -5000 0 -5000 0 0
-5000z m5677 4335 c29 -10 51 -23 50 -28 -1 -6 4 -12 11 -13 6 -1 16 -2 22 -3
5 0 14 -11 21 -22 7 -13 7 -19 1 -15 -6 3 -13 2 -17 -4 -3 -5 2 -10 13 -10 10
0 19 -7 19 -14 0 -12 -7 -11 -29 5 -15 11 -25 25 -21 31 4 7 0 9 -10 5 -9 -3
-17 -1 -19 4 -2 6 -12 1 -22 -10 -19 -21 -19 -21 2 -22 42 -3 45 -4 48 -21 1
-11 -3 -15 -12 -11 -8 3 -14 9 -14 14 0 4 -23 11 -52 15 -46 6 -49 8 -33 20
13 10 21 11 25 4 5 -7 11 -6 18 2 9 11 4 14 -23 15 -19 0 -33 -3 -30 -7 3 -4
-2 -14 -11 -21 -12 -10 -20 -10 -35 -1 -15 10 -19 9 -19 0 -1 -9 -4 -8 -13 2
-7 8 -23 14 -37 13 -24 -2 -24 -2 3 8 15 6 27 15 27 20 0 5 -14 2 -30 -6 -35
-18 -31 -35 6 -35 14 0 22 -4 19 -10 -3 -5 0 -10 7 -11 10 0 10 -2 0 -6 -6 -2
-10 -9 -6 -14 3 -5 1 -9 -5 -9 -5 0 -11 4 -13 8 -1 4 -18 18 -36 31 -18 12
-30 26 -27 31 7 12 -5 40 -18 40 -7 0 -7 -4 1 -12 18 -18 15 -28 -9 -28 -18 0
-19 -2 -9 -15 7 -8 15 -13 19 -11 13 8 40 -21 38 -42 -1 -20 -4 -19 -39 15
-23 23 -38 31 -38 23 0 -9 -3 -11 -8 -5 -9 12 -72 13 -90 1 -7 -4 -16 -5 -19
-2 -4 3 0 6 7 6 7 0 1 9 -14 21 -14 11 -24 25 -21 30 4 5 -1 6 -10 3 -14 -6
-14 -8 -1 -23 12 -14 15 -38 6 -61 -1 -3 -2 -8 -1 -12 0 -4 -10 -10 -24 -14
-14 -3 -22 -10 -19 -15 3 -5 0 -9 -6 -9 -7 0 -10 6 -7 14 3 7 0 19 -6 25 -6 6
-7 14 -3 18 4 4 11 1 16 -7 6 -9 10 -10 10 -3 0 6 6 13 13 16 6 2 4 3 -5 2
-22 -4 -60 24 -52 37 5 7 2 8 -7 2 -8 -5 -23 -7 -34 -5 -11 2 -17 0 -14 -3 3
-3 14 -7 25 -9 10 -1 25 -6 33 -11 11 -7 11 -10 0 -17 -22 -14 -49 -11 -43 4
3 8 -2 14 -10 14 -8 0 -13 -4 -11 -8 8 -12 -23 -31 -47 -27 -15 2 -22 9 -20
20 2 12 -2 16 -13 12 -8 -3 -15 -12 -15 -20 0 -8 -5 -14 -11 -14 -6 0 -9 6 -6
13 3 8 -1 14 -9 14 -7 0 -11 -4 -8 -9 3 -4 -2 -8 -10 -8 -9 0 -16 5 -16 10 0
6 -5 10 -11 10 -5 0 -7 -4 -4 -10 9 -14 -8 -13 -23 2 -9 9 -15 9 -24 -1 -11
-10 -10 -11 5 -6 10 5 17 2 17 -5 0 -7 8 -10 20 -7 11 3 23 1 26 -5 3 -5 12
-7 18 -5 7 3 19 1 27 -4 9 -5 -7 -7 -43 -6 -47 3 -54 1 -40 -10 16 -11 16 -12
1 -13 -19 0 -42 24 -32 33 3 4 -1 7 -11 7 -9 0 -14 -4 -11 -10 4 -6 -7 -8 -27
-5 -19 3 -26 2 -18 -2 24 -12 22 -32 -2 -28 -11 3 -22 6 -23 7 -1 2 -8 12 -14
23 -11 18 -12 16 -7 -15 2 -19 2 -29 -1 -22 -6 14 -83 17 -83 2 0 -6 -6 -9
-12 -8 -7 2 -12 -3 -10 -10 2 -10 -2 -10 -18 -2 -18 10 -19 13 -6 25 8 8 19
15 25 15 6 0 11 5 11 12 0 6 3 8 7 5 3 -4 16 -1 27 6 21 14 76 34 112 41 10 3
36 12 57 21 21 8 42 13 47 10 6 -4 10 -2 10 3 0 12 165 56 178 48 6 -3 13 -2
16 3 3 5 43 14 88 20 46 6 94 13 108 15 64 11 297 -2 347 -19z m143 -45 c17
-9 60 -69 60 -84 0 -3 -5 -6 -12 -6 -6 0 -9 2 -6 6 3 3 -15 25 -41 49 -43 42
-44 58 -1 35z m199 -150 c48 -47 113 -121 146 -165 32 -44 63 -86 69 -93 7 -9
5 -12 -4 -10 -18 4 -39 21 -35 28 4 7 -24 45 -33 45 -4 0 -6 3 -4 8 1 4 -4 7
-12 7 -13 0 -31 27 -28 42 1 4 -4 5 -11 3 -6 -2 -43 35 -82 81 -38 47 -86 100
-106 119 -51 45 -58 61 -19 39 18 -10 72 -57 119 -104z m-649 74 c0 -2 -9 -4
-21 -4 -11 0 -18 4 -14 10 5 8 35 3 35 -6z m220 6 c0 -5 -4 -10 -10 -10 -5 0
-10 5 -10 10 0 6 5 10 10 10 6 0 10 -4 10 -10z m65 -1 c4 -5 -3 -9 -14 -9 -26
0 -35 15 -11 17 11 1 22 -2 25 -8z m-235 -15 c0 -2 -9 -4 -21 -4 -11 0 -18 4
-14 10 5 8 35 3 35 -6z m280 6 c0 -5 -5 -10 -11 -10 -5 0 -7 5 -4 10 3 6 8 10
11 10 2 0 4 -4 4 -10z m-547 -31 c3 -10 1 -19 -4 -19 -5 0 -9 7 -9 15 0 8 -9
15 -20 15 -11 0 -20 4 -20 9 0 16 48 -1 53 -20z m27 10 c0 -6 -4 -7 -10 -4 -5
3 -10 11 -10 16 0 6 5 7 10 4 6 -3 10 -11 10 -16z m200 -10 c0 -5 -4 -9 -10
-9 -5 0 -10 7 -10 16 0 8 5 12 10 9 6 -3 10 -10 10 -16z m195 11 c3 -5 -3 -10
-15 -10 -12 0 -18 5 -15 10 3 6 10 10 15 10 5 0 12 -4 15 -10z m105 -11 c0 -5
-4 -9 -10 -9 -5 0 -10 7 -10 16 0 8 5 12 10 9 6 -3 10 -10 10 -16z m145 11 c8
-13 -25 -13 -45 0 -12 8 -9 10 12 10 15 0 30 -4 33 -10z m-541 -9 c3 -5 -6
-11 -21 -14 -26 -5 -26 -4 -8 9 22 17 22 17 29 5z m-157 -16 c0 -7 -10 -10
-24 -7 -12 2 -23 8 -23 13 0 5 11 8 23 7 13 -1 24 -7 24 -13z m-154 -7 c3 -8
-4 -13 -19 -13 -22 0 -23 1 -7 13 9 6 18 12 19 12 1 0 4 -6 7 -12z m-359 -23
c-4 -9 -15 -20 -25 -26 -25 -13 -27 16 -1 30 24 15 32 13 26 -4z m130 -1 c5
-12 2 -15 -10 -10 -8 3 -21 6 -27 6 -7 0 -6 4 3 10 21 14 27 12 34 -6z m291
-4 c3 -5 1 -10 -4 -10 -6 0 -11 5 -11 10 0 6 2 10 4 10 3 0 8 -4 11 -10z m-40
-21 c5 -5 -5 -4 -23 2 -17 6 -32 13 -32 16 0 7 43 -8 55 -18z m-281 2 c4 -5
-3 -7 -14 -4 -23 6 -26 13 -6 13 8 0 17 -4 20 -9z m-201 -58 c-22 -26 -48 -61
-59 -78 -10 -16 -27 -39 -36 -49 -10 -11 -18 -23 -18 -28 0 -4 -10 -8 -22 -8
-22 1 -23 1 -4 15 11 8 16 15 12 15 -12 0 49 82 103 139 63 65 79 61 24 -6z
m157 47 c0 -5 -8 -10 -17 -10 -15 0 -16 2 -3 10 19 12 20 12 20 0z m517 -36
c-3 -3 -12 -4 -19 -1 -8 3 -5 6 6 6 11 1 17 -2 13 -5z m-820 -214 c-1 -11 -6
-20 -12 -20 -9 0 -12 25 -6 48 3 12 19 -12 18 -28z m1910 -56 c-3 -3 -12 -4
-19 -1 -8 3 -5 6 6 6 11 1 17 -2 13 -5z m-1977 -54 c0 -5 -2 -10 -4 -10 -3 0
-8 5 -11 10 -3 6 -1 10 4 10 6 0 11 -4 11 -10z m-76 -105 c3 -8 1 -15 -4 -15
-6 0 -10 7 -10 15 0 8 2 15 4 15 2 0 6 -7 10 -15z m1439 -571 c94 -18 214 -57
287 -95 129 -65 326 -217 352 -271 7 -15 16 -24 20 -22 5 3 11 -3 15 -13 4
-10 13 -24 20 -32 8 -7 12 -16 9 -19 -9 -8 -46 29 -40 39 3 5 -2 9 -10 9 -9 0
-16 5 -16 11 0 5 -5 7 -12 3 -6 -4 -8 -3 -4 4 3 5 -9 19 -26 31 -18 11 -41 28
-50 38 -25 27 -46 43 -57 43 -6 0 -15 9 -21 20 -6 11 -17 20 -25 20 -7 0 -20
6 -27 13 -26 23 -77 57 -88 57 -6 0 -20 8 -31 18 -35 33 -155 83 -235 96 -17
3 -48 12 -70 19 -62 20 -404 10 -428 -14 -6 -5 -22 -9 -37 -9 -26 0 -141 -31
-184 -50 -37 -15 -60 -23 -67 -22 -3 1 -12 -5 -18 -13 -7 -8 -20 -15 -29 -15
-18 0 -213 -99 -335 -170 -43 -25 -89 -51 -102 -58 -13 -7 -24 -18 -24 -23 0
-6 -4 -8 -9 -5 -5 3 -21 -6 -35 -19 -15 -14 -31 -25 -37 -25 -5 0 -9 -5 -9
-10 0 -13 -45 -60 -57 -60 -5 0 -15 -9 -22 -19 -8 -11 -20 -17 -28 -14 -9 3
-11 0 -7 -10 4 -11 -2 -16 -18 -19 -15 -2 -23 -9 -22 -21 1 -11 -5 -17 -18
-17 -10 0 -16 -5 -13 -10 3 -6 -3 -14 -14 -18 -11 -4 -20 -11 -21 -17 -1 -5
-8 -9 -15 -7 -10 2 -13 -3 -9 -13 4 -10 2 -15 -7 -13 -8 2 -15 -7 -17 -19 -2
-13 -8 -23 -13 -23 -16 0 -39 -27 -31 -36 4 -5 -1 -2 -11 6 -17 13 -16 16 22
54 23 23 50 52 60 64 11 13 25 21 30 17 7 -3 8 0 5 9 -4 12 0 16 16 16 11 0
19 4 16 8 -9 14 195 205 270 254 190 123 452 255 602 304 95 31 214 57 317 68
63 6 222 -4 308 -20z m737 -485 c0 -5 -6 -9 -13 -9 -8 0 -14 6 -14 14 0 8 6
12 14 9 7 -3 13 -9 13 -14z m1 -36 c13 -16 12 -17 -3 -4 -10 7 -18 15 -18 17
0 8 8 3 21 -13z m-309 -25 c-2 -10 1 -25 8 -33 6 -8 9 -19 5 -24 -3 -7 0 -8 9
-5 9 3 16 11 16 18 0 6 4 5 9 -4 6 -8 8 -17 6 -21 -3 -3 6 -6 20 -6 15 0 22 4
18 11 -9 16 1 6 41 -42 38 -46 44 -62 23 -62 -7 0 -18 -9 -25 -20 -7 -11 -22
-20 -35 -20 -16 0 -18 -3 -9 -9 11 -7 11 -9 -1 -14 -19 -7 -16 -35 4 -48 8 -5
9 -9 3 -9 -6 0 -14 -13 -17 -30 -4 -16 -18 -40 -32 -52 -24 -21 -35 -46 -15
-33 6 3 10 -5 10 -19 0 -32 10 -57 20 -51 5 3 11 -9 15 -25 4 -17 15 -39 25
-48 17 -16 18 -22 5 -90 -33 -170 -95 -278 -217 -379 -64 -53 -111 -67 -203
-61 -119 8 -282 105 -353 211 -39 58 -42 66 -32 93 21 55 102 208 183 343 121
204 132 220 165 219 83 -2 104 2 98 17 -4 10 3 20 20 27 24 11 25 13 7 25 -14
11 -15 15 -5 22 8 5 13 11 12 15 -1 4 1 21 5 39 6 28 8 30 15 12 5 -11 9 -14
9 -7 1 6 8 12 17 12 8 0 12 5 9 10 -3 6 -2 10 3 10 5 0 12 9 15 19 4 15 13 20
38 19 19 0 39 -4 45 -9 12 -9 56 0 49 10 -2 4 2 8 9 8 8 0 11 -8 8 -19z
m-1621 -41 c-6 -8 -7 -18 -3 -22 4 -5 2 -5 -4 -2 -7 4 -15 0 -18 -9 -3 -8 -11
-12 -16 -9 -12 7 -57 -44 -52 -59 2 -4 -4 -6 -13 -2 -9 3 -13 2 -10 -3 3 -5 1
-12 -5 -16 -6 -4 -8 -11 -4 -16 3 -5 10 -7 15 -3 5 3 6 10 3 16 -5 7 0 9 14 6
15 -4 23 0 27 13 4 10 13 19 21 19 8 0 14 5 14 11 0 7 10 9 25 7 21 -4 23 -3
14 9 -10 11 -6 13 24 11 21 -1 37 -6 37 -10 0 -4 5 -8 11 -8 5 0 7 5 3 11 -4
7 -1 10 7 7 8 -3 13 -12 11 -19 -2 -8 0 -10 5 -6 4 5 9 13 9 18 1 5 2 12 3 16
0 3 12 -4 26 -17 13 -12 22 -27 18 -33 -3 -5 -9 -3 -15 4 -8 11 -9 11 -5 -1 2
-8 14 -16 26 -18 14 -2 21 -9 17 -17 -3 -8 0 -17 6 -21 7 -5 8 -2 3 6 -5 8 -4
11 3 6 6 -4 9 -13 6 -20 -3 -8 3 -16 14 -18 11 -3 39 -38 63 -79 58 -100 171
-338 203 -426 l25 -72 -48 -43 c-66 -59 -163 -114 -246 -141 -98 -30 -240 -30
-308 0 -92 42 -212 182 -267 309 l-22 52 21 43 c24 49 26 71 9 98 -11 18 -12
18 -32 0 -27 -26 -39 -24 -25 4 49 93 311 382 356 393 13 4 21 9 18 12 -3 3 5
12 17 19 30 16 33 16 19 0z m762 -619 c36 -31 31 -36 -13 -13 -27 14 -33 14
-61 0 -41 -22 -49 -12 -10 11 l31 18 2 246 1 245 9 -240 9 -240 32 -27z m208
448 c-11 -25 -17 -46 -14 -46 4 0 -3 -10 -14 -22 -22 -24 -24 -29 -93 -198
-24 -58 -47 -109 -52 -114 -15 -18 -8 22 11 71 36 91 171 366 177 360 3 -3 -3
-26 -15 -51z m-430 -58 c10 -35 2 -36 -11 -2 -7 18 -15 24 -27 20 -13 -5 -14
-4 -3 9 7 8 10 27 7 42 -5 24 -4 22 10 -7 8 -19 19 -47 24 -62z m129 73 c-18
-10 -80 -22 -80 -16 0 5 59 23 80 24 13 0 13 -1 0 -8z m97 -7 c-3 -3 -12 -4
-19 -1 -8 3 -5 6 6 6 11 1 17 -2 13 -5z m40 -10 c-3 -3 -12 -4 -19 -1 -8 3 -5
6 6 6 11 1 17 -2 13 -5z m98 -25 c14 -6 9 -7 -15 -3 -19 4 -44 11 -55 15 -14
6 -9 7 15 3 19 -4 44 -11 55 -15z m-1365 -3 c0 -7 -9 -16 -20 -19 -23 -6 -26
3 -8 21 16 16 28 15 28 -2z m-46 -35 c5 -8 -26 -51 -37 -51 -5 0 25 60 30 60
1 0 4 -4 7 -9z m1155 -351 c0 -14 -20 40 -45 119 -24 80 -44 149 -43 155 1 22
89 -249 88 -274z m41 -243 c33 -4 49 -2 62 10 10 9 21 13 26 9 15 -16 -40 -46
-84 -46 -41 0 -45 -2 -60 -37 -17 -40 -84 -243 -84 -255 0 -9 107 -9 195 1
l61 6 -38 130 c-20 72 -36 135 -34 140 6 21 37 -58 57 -144 11 -49 26 -97 34
-107 12 -17 16 -16 74 20 34 20 67 36 73 34 6 -2 -13 -18 -43 -36 -101 -59
-96 -43 -59 -184 18 -68 38 -141 44 -162 l12 -39 37 32 c20 18 59 61 87 96 56
70 187 191 197 181 3 -3 -29 -41 -73 -85 -43 -43 -116 -117 -162 -164 l-83
-85 27 -91 c15 -50 32 -91 37 -91 20 0 112 105 265 301 175 226 195 249 217
249 17 0 -3 -34 -154 -250 -103 -148 -167 -229 -263 -333 -61 -66 -65 -68
-153 -92 -124 -34 -270 -49 -393 -41 -98 6 -105 8 -160 45 -74 50 -220 195
-287 285 -54 73 -255 431 -255 455 0 25 30 -10 61 -71 l30 -59 40 51 c22 27
47 50 56 50 18 0 12 -8 -51 -77 -26 -28 -29 -37 -20 -60 5 -16 25 -36 48 -48
85 -44 235 -218 328 -379 22 -39 48 -82 56 -96 l17 -25 7 40 c3 22 16 76 27
120 l20 79 -111 106 c-114 107 -246 257 -273 310 -14 27 -14 30 0 30 8 0 15
-7 15 -15 0 -34 360 -423 374 -404 1 2 10 38 19 79 10 41 30 118 46 170 30 98
30 110 5 110 -21 0 -189 113 -175 118 7 2 50 -21 96 -53 46 -31 89 -55 95 -53
14 4 101 252 102 288 0 14 -3 36 -7 50 -8 24 -7 24 11 9 10 -9 39 -19 64 -22z
m647 -243 c-3 -3 -12 -4 -19 -1 -8 3 -5 6 6 6 11 1 17 -2 13 -5z m34 -122 c13
-11 18 -21 12 -25 -6 -4 -21 5 -33 18 -27 29 -13 33 21 7z m-1596 -50 c17 -6
25 -11 18 -11 -6 -1 -23 3 -37 9 -19 7 -26 6 -26 -2 0 -6 -3 -9 -6 -5 -4 3 -3
14 0 24 5 11 10 13 14 7 4 -6 21 -16 37 -22z m-74 -69 c-12 -20 -14 -14 -5 12
4 9 9 14 11 11 3 -2 0 -13 -6 -23z m178 -73 c4 -3 4 -16 0 -30 l-7 -25 -1 24
c-1 19 -5 22 -23 18 -13 -3 -45 -8 -73 -11 -39 -4 -43 -4 -20 3 17 5 47 12 68
15 35 6 37 9 39 44 l1 37 4 -35 c3 -19 8 -37 12 -40z m-198 23 c-12 -20 -14
-14 -5 12 4 9 9 14 11 11 3 -2 0 -13 -6 -23z m14 -55 c17 -3 15 -5 -7 -10 -24
-4 -28 -2 -28 16 0 13 3 16 8 10 4 -7 16 -14 27 -16z m-38 -50 c-3 -8 -6 -5
-6 6 -1 11 2 17 5 13 3 -3 4 -12 1 -19z m230 -10 c-3 -8 -6 -5 -6 6 -1 11 2
17 5 13 3 -3 4 -12 1 -19z m23 -58 c4 0 6 -9 3 -19 -9 -33 -30 -14 -24 22 3
19 6 25 9 15 2 -10 7 -18 12 -18z m-248 -160 c7 0 6 -5 -2 -15 -26 -32 22
-237 72 -306 l31 -42 22 36 c32 55 43 59 12 6 l-26 -46 52 -50 c29 -28 68 -61
87 -72 19 -12 29 -21 22 -21 -21 0 -122 70 -139 96 -8 13 -22 24 -30 24 -8 0
-11 5 -7 11 3 6 -5 23 -19 37 -14 15 -35 48 -46 73 -31 71 -59 208 -51 254 1
6 2 51 2 100 l2 90 3 -87 c2 -55 8 -88 15 -88z m177 106 c-2 -2 -15 -9 -29
-15 -24 -11 -24 -11 -6 3 16 13 49 24 35 12z m2041 -17 c0 -6 -7 -8 -16 -5 -8
3 -12 2 -9 -4 3 -6 2 -10 -4 -10 -13 0 -22 15 -14 24 11 10 43 7 43 -5z m-44
-20 c3 -6 0 -15 -7 -20 -30 -18 -52 -35 -68 -50 -24 -24 -136 -83 -216 -113
-38 -15 -79 -31 -90 -36 -25 -11 -153 -48 -180 -52 -11 -2 -26 -7 -32 -11 -7
-5 -17 -6 -22 -3 -5 4 -11 2 -13 -4 -1 -5 -15 -11 -30 -12 -16 -1 -28 -6 -28
-11 0 -5 -6 -7 -14 -4 -8 3 -16 2 -18 -3 -2 -4 -16 -11 -33 -14 -53 -9 -120
-29 -225 -67 -61 -21 -74 -26 -120 -45 -24 -11 -47 -18 -50 -17 -3 1 -18 -9
-35 -21 -16 -13 -41 -27 -55 -31 -14 -4 -27 -11 -30 -15 -3 -4 -28 -18 -56
-31 l-51 -25 18 29 c51 84 248 170 648 283 393 111 515 158 631 242 61 45 66
47 76 31z m-1793 -186 c23 -24 36 -43 30 -43 -6 0 -31 23 -56 50 l-45 50 -22
-27 c-12 -16 -18 -21 -14 -13 4 8 16 25 27 38 20 21 22 21 30 5 5 -10 28 -37
50 -60z m113 39 c-17 -16 -18 -16 -5 5 7 12 15 20 18 17 3 -2 -3 -12 -13 -22z
m-31 -52 c-8 -16 -15 -33 -15 -38 0 -16 101 -54 131 -50 16 3 29 1 29 -3 0 -4
10 -10 23 -12 19 -4 19 -4 -5 -6 -16 0 -28 -8 -31 -18 -4 -14 -5 -14 -6 3 -1
17 -9 23 -38 27 -21 4 -56 16 -77 27 -22 11 -41 19 -42 17 -15 -14 -88 -196
-103 -253 l-19 -73 57 -21 c63 -24 160 -44 169 -36 3 4 9 25 13 49 l6 42 2
-52 1 -52 58 -4 57 -3 -63 -2 -63 -2 2 -131 c0 -72 -1 -132 -2 -134 -2 -1 -10
3 -17 11 -7 8 -8 14 -2 14 6 0 10 45 10 124 l0 125 -57 7 c-32 3 -84 15 -116
24 -31 10 -59 15 -61 11 -2 -3 -11 -37 -21 -76 -9 -38 -21 -77 -26 -85 -39
-67 66 343 110 429 32 63 100 171 108 171 2 0 -3 -13 -12 -30z m374 -110 c-6
-4 -4 -23 6 -49 17 -50 19 -59 6 -45 -5 5 -14 26 -21 47 l-12 37 -81 2 -82 2
83 3 c68 3 83 7 78 18 -4 12 -2 13 14 3 11 -7 15 -15 9 -18z m-658 -13 c-10
-9 -11 -8 -5 6 3 10 9 15 12 12 3 -3 0 -11 -7 -18z m390 -162 c-5 -33 -9 -46
-10 -30 -1 36 11 114 16 100 1 -6 -1 -37 -6 -70z m-561 -175 c0 -11 -4 -20 -9
-20 -7 0 -8 17 -2 38 4 10 11 -2 11 -18z m255 -164 c30 -15 55 -32 55 -37 0
-5 6 -9 13 -9 13 0 44 -30 62 -60 7 -13 6 -13 -11 0 -10 8 -25 21 -32 28 -40
37 -127 65 -219 70 -67 3 -93 8 -93 18 0 34 146 28 225 -10z m172 -132 c-3 -3
-12 -4 -19 -1 -8 3 -5 6 6 6 11 1 17 -2 13 -5z m-352 -268 c38 -65 52 -74 71
-48 8 12 22 22 29 22 12 0 12 -5 -1 -34 -13 -26 -22 -32 -41 -30 -32 3 -68 50
-87 112 -11 35 1 26 29 -22z m213 -121 c-3 -56 -20 -66 -77 -44 -35 13 -45 22
-43 36 5 25 5 25 45 8 l36 -15 7 47 c6 43 8 45 21 27 8 -11 13 -36 11 -59z
m135 -57 c60 2 78 0 75 -10 -8 -24 -191 -46 -195 -24 -1 5 -7 13 -15 17 -19
13 11 31 37 21 11 -4 55 -6 98 -4z m72 -108 c-3 -5 -22 -10 -41 -10 -19 0 -34
5 -34 10 0 6 18 10 41 10 24 0 38 -4 34 -10z m-145 -106 c0 -2 -9 0 -20 6 -11
6 -20 13 -20 16 0 2 9 0 20 -6 11 -6 20 -13 20 -16z m150 0 c0 -9 -28 -3 -46
11 -17 13 -16 14 14 4 17 -6 32 -13 32 -15z m-20 -135 c0 -5 -9 -1 -20 8 -11
10 -20 22 -20 27 0 5 9 1 20 -9 11 -10 20 -22 20 -26z m-396 -449 c13 -27 13
-28 -4 -17 -16 10 -40 48 -40 64 0 12 30 -21 44 -47z m484 -32 c-7 -21 -80
-67 -132 -83 -87 -27 -151 -20 -244 25 -45 21 -82 44 -82 50 0 14 0 14 81 -25
61 -29 85 -35 139 -35 80 0 154 21 195 54 33 28 49 33 43 14z m-404 -271 c45
-15 85 -27 89 -27 4 0 7 19 7 43 0 105 28 118 32 15 l3 -73 55 -13 c30 -7 78
-14 105 -16 28 -3 61 -9 75 -15 24 -9 24 -10 3 -10 -21 -1 -23 -6 -25 -53 l-2
-53 -3 51 -4 52 -89 16 c-49 9 -96 19 -104 22 -14 5 -16 -11 -16 -134 l0 -140
68 -15 c138 -33 132 -33 133 5 2 29 3 30 6 6 5 -35 20 -46 68 -51 35 -3 33 -4
-14 -5 l-53 -2 6 -31 c3 -17 6 -62 6 -100 l0 -68 33 -4 c31 -4 31 -4 -5 -5
l-38 -2 -2 -77 -2 -78 -3 77 c-4 75 -5 78 -31 84 -23 5 -136 39 -168 51 -6 2
-16 -15 -21 -39 l-11 -43 -1 40 c-1 22 -5 45 -9 51 -4 7 -35 23 -69 37 -59 24
-117 57 -100 57 5 0 40 -13 79 -30 38 -16 76 -30 84 -30 11 0 14 18 14 80 l0
81 -74 33 c-127 58 -116 65 -117 -66 -1 -62 -4 -102 -6 -88 -3 14 -10 31 -15
38 -7 8 -7 12 1 12 7 0 11 28 11 80 l0 81 -35 21 c-20 11 -33 23 -30 26 3 3
11 0 17 -6 7 -7 20 -12 30 -12 16 0 18 9 18 69 0 37 3 95 6 128 6 59 6 60 -25
72 -17 8 -31 18 -31 23 0 5 10 2 22 -6 33 -23 38 -20 40 22 1 34 2 33 5 -9 l4
-45 83 -27z m353 -9 c-2 -18 -4 -4 -4 32 0 36 2 50 4 33 2 -18 2 -48 0 -65z
m-512 -508 c3 -5 1 -10 -4 -10 -6 0 -11 5 -11 10 0 6 2 10 4 10 3 0 8 -4 11
-10z m91 -117 c-4 -4 -11 -1 -16 7 -16 25 -11 35 7 17 9 -9 13 -20 9 -24z m44
-23 c0 -5 -2 -10 -4 -10 -3 0 -8 5 -11 10 -3 6 -1 10 4 10 6 0 11 -4 11 -10z
m40 -41 c0 -5 -4 -9 -10 -9 -5 0 -10 7 -10 16 0 8 5 12 10 9 6 -3 10 -10 10
-16z m127 -65 c45 -20 55 -34 26 -34 -23 0 -83 37 -83 51 0 6 3 9 8 7 4 -2 26
-13 49 -24z m133 -59 c35 -18 39 -33 9 -31 -12 0 -28 11 -37 24 -17 26 -11 27
28 7z m110 -50 c0 -8 -2 -15 -4 -15 -2 0 -6 7 -10 15 -3 8 -1 15 4 15 6 0 10
-7 10 -15z m50 -10 c0 -8 -4 -15 -10 -15 -5 0 -10 7 -10 15 0 8 5 15 10 15 6
0 10 -7 10 -15z"/>
<path d="M5390 9296 c0 -2 7 -7 16 -10 8 -3 12 -2 9 4 -6 10 -25 14 -25 6z"/>
<path d="M5688 9293 c7 -3 16 -2 19 1 4 3 -2 6 -13 5 -11 0 -14 -3 -6 -6z"/>
<path d="M5295 9270 c-16 -7 -17 -9 -3 -9 9 -1 20 4 23 9 7 11 7 11 -20 0z"/>
<path d="M5345 9264 c20 -15 35 -15 38 1 1 5 -11 11 -28 12 -28 2 -29 1 -10
-13z"/>
<path d="M5226 9255 c4 -8 11 -15 16 -15 6 0 5 6 -2 15 -7 8 -14 15 -16 15 -2
0 -1 -7 2 -15z"/>
<path d="M5440 9232 c0 -5 7 -15 15 -22 8 -7 15 -8 15 -2 0 5 -7 15 -15 22 -8
7 -15 8 -15 2z"/>
<path d="M4830 9210 c0 -5 5 -10 11 -10 5 0 7 5 4 10 -3 6 -8 10 -11 10 -2 0
-4 -4 -4 -10z"/>
<path d="M4718 9173 c7 -3 16 -2 19 1 4 3 -2 6 -13 5 -11 0 -14 -3 -6 -6z"/>
<path d="M5850 7320 c0 -6 7 -10 15 -10 8 0 15 2 15 4 0 2 -7 6 -15 10 -8 3
-15 1 -15 -4z"/>
<path d="M5910 7300 c-9 -6 -10 -10 -3 -10 6 0 15 5 18 10 8 12 4 12 -15 0z"/>
<path d="M5990 7300 c0 -12 26 -31 33 -23 12 11 7 21 -13 26 -11 3 -20 2 -20
-3z"/>
<path d="M4282 7295 c-29 -32 -30 -35 -11 -32 12 2 30 14 40 26 10 12 20 22
23 21 13 -1 6 15 -7 18 -7 1 -28 -13 -45 -33z"/>
<path d="M4159 7143 c-22 -45 -22 -46 -10 -39 7 5 9 1 5 -8 -8 -22 23 -21 44
1 22 22 27 67 6 59 -7 -3 -14 -1 -14 4 0 19 -17 9 -31 -17z"/>
<path d="M5018 6298 c-14 -12 -33 -77 -83 -291 l-14 -59 115 6 c368 19 345 17
340 35 -3 9 -24 85 -47 169 l-42 152 -126 0 c-87 0 -132 -4 -143 -12z"/>
<path d="M4454 6125 c38 -59 172 -221 244 -295 l74 -75 -28 50 c-72 130 -182
261 -274 325 l-35 25 19 -30z"/>
<path d="M5013 5941 c-50 -3 -93 -8 -96 -11 -7 -8 -46 -182 -49 -220 -3 -40
-7 -39 112 -22 41 6 146 14 232 18 124 6 164 11 187 25 32 19 32 16 4 147
l-15 72 -142 -2 c-77 -1 -182 -4 -233 -7z"/>
<path d="M5025 5671 c-39 -3 -65 -9 -58 -14 12 -8 302 9 311 18 7 6 -160 3
-253 -4z"/>
<path d="M4217 3233 c-4 -94 -3 -129 6 -135 22 -14 168 -71 172 -67 3 4 8 185
6 241 -1 24 -9 29 -78 53 -43 15 -83 29 -89 31 -7 3 -13 -36 -17 -123z"/>
<path d="M4425 2911 c-4 -44 -4 -84 -1 -90 7 -11 161 -61 189 -61 15 0 17 13
17 100 0 73 -3 100 -12 100 -21 1 -131 18 -159 25 l-27 7 -7 -81z"/>
</g>
</svg>
